<svg xmlns="http://www.w3.org/2000/svg" width="917" height="917" viewBox="0 0 917 917">
  <defs>
    <style>
      .cls-1 {
        fill: #c10900;
      }

      .cls-1, .cls-2, .cls-3 {
        fill-rule: evenodd;
      }

      .cls-2 {
        fill: #002d4c;
      }

      .cls-3 {
        fill: #007241;
      }
    </style>
  </defs>
  <path id="Canada" class="cls-1" d="M71,683S-3.075,535.194,165,489c-0.007-.04,36.1-8.717,54-8,0.5,0.164,146.21.46,227-28,0.118,0.531,203.9-63.559,260-212,0.184,0.963,70.231-156.454-135-227-0.149.84-301.568-83.2-500,203C70.636,216.566-87.946,461.754,71,683ZM416,384s11.264-26.305-13-92c-0.986-.121-37.047.219-100,83,1.309,0.813,3.895-43.9-37-49,0.784,0.515-48.646-13.559-73-8,1.659,0.83,18-21,18-21s-5.991-21.919-42-29c-0.066-.245,66.274-20.961,75-31-0.314-.116-0.265-14.936-9-18,0.527,0.243.414-10.479,88-9-0.081-.24-49.515-76.77-77-89,0.3-.851,73,12,73,12l1-56s30.006,2.446,47,36c-0.206.211,19.639-33.347,40-48-0.22-.419,12.545,40.651,18,98,0.09,0.6,43.609-42.639,80-55,0.434,0.462,14,26,14,26s62.957-28.293,76-29c-0.922.29-23.1,35.879-17,52-0.63.41,5.712,6.832,19,2-0.179.654-49.192,35.3-69,82-0.222.184-5.04,16.239,20,25,0.245,0.049-70.938-7.417-107,9-0.123.257,23.62,35.934,32,85C473.274,359.837,443.481,365.218,416,384Z"/>
  <path class="cls-2" d="M779,802s-58.848,48.889-138,22c0.915-.013-33.127-12.952-72-62,0.535,0.214-104.56-145.736-129-156,0.2,0.9-79.073-83.7-209-96,0.053-.23-168.836-11.565-145,136-0.108.242,22.947,137.266,175,220C261.067,865.4,485.9,1008.9,779,802ZM165,594s71.348,9.709,81,15c0.077,0.115,29.031-36.829,54-58,0.02-.295,16.129,79.513,27,97,0.141,0.445,93,49,93,49l-75,37s11.714,73.53,31,114c-0.1.482-41.384-6.712-112-85,0.038,0.267-81,0-81,0l24-68S169.806,626.442,165,594Z"/>
  <path class="cls-3" d="M691,56s110.06,100.824,17,242c0.69,0.117-223.618,259.771-106,460-0.406-.137,46.293,79.845,147,29-0.484.246,155.2-80.475,166-322C915.258,465.218,948.344,204.148,691,56Zm74,383s-86.027-6.591-130,129c0.356,0.876-52.1,148.023,34,187,0.9,0.98,71.878,39.272,138-93C805.765,662.14,887.787,466.984,765,439Z"/>
  <path id="Shape_6_copy" data-name="Shape 6 copy" class="cls-1" d="M699,498s60.163-75.252,102-2c-0.631.923,38.71,102.554-44,210,0.237,0.611-100.893,100.008-114-56C643.084,649.8,654.894,540.044,699,498Zm5.681,57.531s36.51-47.521,59.323.589c-0.386.585,20.395,66.987-29.879,134.9,0.125,0.4-60.69,62.767-65.109-38.292C669.069,652.6,678.184,581.888,704.681,555.531Z"/>
</svg>
