<svg xmlns="http://www.w3.org/2000/svg" width="3624" height="917" viewBox="0 0 3624 917">
  <defs>
    <style>
      .cls-1 {
        fill: #c10900;
      }

      .cls-1, .cls-2, .cls-3 {
        fill-rule: evenodd;
      }

      .cls-2 {
        fill: #002d4c;
      }

      .cls-3 {
        fill: #007241;
      }
    </style>
  </defs>
  <path id="Canada" class="cls-1" d="M71,683S-3.075,535.194,165,489c-0.007-.04,36.1-8.717,54-8,0.5,0.164,146.21.46,227-28,0.118,0.531,203.9-63.559,260-212,0.184,0.963,70.231-156.454-135-227-0.149.84-301.568-83.2-500,203C70.636,216.566-87.946,461.754,71,683ZM416,384s11.264-26.305-13-92c-0.986-.121-37.047.219-100,83,1.309,0.813,3.895-43.9-37-49,0.784,0.515-48.646-13.559-73-8,1.659,0.83,18-21,18-21s-5.991-21.919-42-29c-0.066-.245,66.274-20.961,75-31-0.314-.116-0.265-14.936-9-18,0.527,0.243.414-10.479,88-9-0.081-.24-49.515-76.77-77-89,0.3-.851,73,12,73,12l1-56s30.006,2.446,47,36c-0.206.211,19.639-33.347,40-48-0.22-.419,12.545,40.651,18,98,0.09,0.6,43.609-42.639,80-55,0.434,0.462,14,26,14,26s62.957-28.293,76-29c-0.922.29-23.1,35.879-17,52-0.63.41,5.712,6.832,19,2-0.179.654-49.192,35.3-69,82-0.222.184-5.04,16.239,20,25,0.245,0.049-70.938-7.417-107,9-0.123.257,23.62,35.934,32,85C473.274,359.837,443.481,365.218,416,384Z"/>
  <path class="cls-2" d="M779,802s-58.848,48.889-138,22c0.915-.013-33.127-12.952-72-62,0.535,0.214-104.56-145.736-129-156,0.2,0.9-79.073-83.7-209-96,0.053-.23-168.836-11.565-145,136-0.108.242,22.947,137.266,175,220C261.067,865.4,485.9,1008.9,779,802ZM165,594s71.348,9.709,81,15c0.077,0.115,29.031-36.829,54-58,0.02-.295,16.129,79.513,27,97,0.141,0.445,93,49,93,49l-75,37s11.714,73.53,31,114c-0.1.482-41.384-6.712-112-85,0.038,0.267-81,0-81,0l24-68S169.806,626.442,165,594Z"/>
  <path class="cls-3" d="M691,56s110.06,100.824,17,242c0.69,0.117-223.618,259.771-106,460-0.406-.137,46.293,79.845,147,29-0.484.246,155.2-80.475,166-322C915.258,465.218,948.344,204.148,691,56Zm74,383s-86.027-6.591-130,129c0.356,0.876-52.1,148.023,34,187,0.9,0.98,71.878,39.272,138-93C805.765,662.14,887.787,466.984,765,439Z"/>
  <path id="Shape_6_copy" data-name="Shape 6 copy" class="cls-1" d="M699,498s60.163-75.252,102-2c-0.631.923,38.71,102.554-44,210,0.237,0.611-100.893,100.008-114-56C643.084,649.8,654.894,540.044,699,498Zm5.681,57.531s36.51-47.521,59.323.589c-0.386.585,20.395,66.987-29.879,134.9,0.125,0.4-60.69,62.767-65.109-38.292C669.069,652.6,678.184,581.888,704.681,555.531Z"/>
  <path id="WORLD_CUP" data-name="WORLD CUP" class="cls-2" d="M995.113,282.4L1135.06,638.873l63.82-173.479,65.32,173.479L1404.15,282.4h-75.71L1264.2,447.44,1199.74,282.4,1135.06,447.44,1070.6,282.4H995.113Zm577.757-2.812q-72.885,0-125.02,52.13-51.915,52.347-51.92,125.243,0,73.112,51.92,125.026,51.69,51.265,125.02,51.482,73.11,0,125.03-51.482,52.125-51.7,52.13-125.026,0-73.113-52.13-125.243T1572.87,279.585Zm0,70.733q43.7,0,74.85,31.148,31.365,31.365,31.36,75.059,0,44.127-31.36,75.06t-74.85,30.932q-44.13,0-75.06-30.932-31.14-31.149-31.14-75.06,0-43.477,31.14-75.059Q1528.53,350.319,1572.87,350.318ZM1780.1,631.086h70.08V476.858l100.15,154.228h85.66l-81.12-126.324c19.8-7.79,29.5-15.084,41.75-32.23q22.065-31.149,22.06-66.407V397.04c0-38.576-12.51-57.941-33.74-79.169-21.07-20.815-52.46-35.474-91.28-35.474H1779.88Zm120.26-182.781H1877v-0.216h-27.04V351.832h39.37c16.9,0,34.17,5,43.26,13.844q13.845,14.492,13.85,33.528C1946.44,425.786,1925.9,448.305,1900.36,448.305ZM2066.06,282.4V631.086h210.25V561.435H2136.14V282.4h-70.08Zm333.33,0.216h-92.8V631.086h92.8q75.915,0,127.4-51.049,46.725-46.506,46.73-122.971t-46.73-123.4c-29.75-29.506-72.63-51.266-127.4-51.266v0.217Zm104.26,173.912c0,62.963-40.97,104.693-103.83,104.693h-23.36V351.831h22.71C2461.98,351.831,2503.65,394.133,2503.65,456.525Zm519.14,125.459-49.97-49.967q-31.14,31.149-75.27,31.149-43.92,0-74.85-30.933-31.14-31.147-31.14-75.059,0-43.477,31.14-75.059,30.72-31.147,74.85-31.148,43.47,0,75.06,31.148l49.96-49.967c-28.81-27.784-71.61-51.7-125.46-51.7l0.22-.865q-72.675,0-124.81,52.13-51.915,52.347-51.91,125.243,0,73.112,51.91,125.026,51.7,51.265,124.81,51.482A176.117,176.117,0,0,0,3022.79,581.984Zm171.32-18.6c-38.32,0-70.52-32.067-70.52-70.084V282.4h-70.52V493.514q0,58.4,41.32,99.718,41.31,41.1,99.93,41.1,57.975,0,99.5-41.1,41.325-41.314,41.32-99.718V282.4h-70.52V493.3C3264.62,531.086,3232.06,563.382,3194.11,563.382Zm184.29,67.7h70.08V526.393h52.35q50.4,0,86.52-35.691,36.135-35.041,36.13-86.091,0-50.616-36.13-86.523-35.685-35.691-86.52-35.691H3378.4V631.086Zm174.99-226.475c0,28.511-23.87,52.563-52.56,52.563l-52.35-.216V351.832h52.35C3529.4,351.832,3553.39,376.133,3553.39,404.611Z"/>
  <path id="FIFA" class="cls-2" d="M2040.08,2.757V132.323h25.94V80.512h38.92V54.647h-38.92V28.622h51.89V2.757h-77.83Zm167.76,129.407h25.95V3.077h-25.95V132.163ZM2328.52,2.757V132.323h25.95V80.512h38.92V54.647h-38.92V28.622h51.89V2.757h-77.84Zm138.94,129.407h28.03l8.73-19.619h44.2l8.73,19.619h28.11L2526.32,0.434Zm47.01-42.522,11.93-27.307,11.77,27.307h-23.7Z"/>
  <path id="_2026" data-name="2026" class="cls-2" d="M2035.15,812.682a20.142,20.142,0,0,1,20.1,20.019q0,5.526-5.56,14.054a141.088,141.088,0,0,1-14.46,18.178,282.075,282.075,0,0,1-42.2,36.876l-4.4,14.734h92.09V890.678h-35.88c5.49-4.413,9.73-9.117,14.58-14.174a109.072,109.072,0,0,0,15.61-21.141,45.761,45.761,0,0,0,6.25-22.662,46.085,46.085,0,0,0-92.17,0h25.94A20.179,20.179,0,0,1,2035.15,812.682Zm132.86,39.238c0,34.693,18.41,65.264,50.28,65.264q22.995,0,36.92-19.459,13.38-18.579,13.37-45.805,0-27.066-13.37-45.645-13.86-19.539-36.92-19.539C2186.53,786.736,2168.01,817.323,2168.01,851.92Zm66.14-30.67q8.415,11.931,8.41,30.67,0,18.9-8.41,30.67Q2227.985,891,2218.21,891q-9.69,0-15.85-8.408-8.49-11.852-8.49-30.67,0-18.579,8.49-30.67,6.165-8.409,15.85-8.408Q2227.99,812.842,2234.15,821.25Zm167.69-8.568a20.149,20.149,0,0,1,20.1,20.019q0,5.526-5.57,14.054a141.813,141.813,0,0,1-14.45,18.178,282.573,282.573,0,0,1-42.2,36.876l-4.41,14.734h92.09V890.678h-35.87c5.48-4.413,9.73-9.117,14.57-14.174a109.131,109.131,0,0,0,15.62-21.141,45.852,45.852,0,0,0,6.24-22.662,46.085,46.085,0,0,0-92.17,0h25.95A20.172,20.172,0,0,1,2401.84,812.682Zm178.41,78.556a19.459,19.459,0,1,1-.08-38.918l0.08-.08A19.5,19.5,0,1,1,2580.25,891.238Zm-4.08-103.781-33.55,58.137c-0.58.868-1.72,3.231-2.37,4.444a46.687,46.687,0,0,0-5.56,21.821,45.106,45.106,0,0,0,45.32,45.164,44.008,44.008,0,0,0,32.11-13.132,43.181,43.181,0,0,0,13.38-32.032,43.863,43.863,0,0,0-12.25-30.91,45.812,45.812,0,0,0-29.95-14.334l22.42-39Z"/>
</svg>
