<?xml version="1.0" encoding="utf-8"?>
<!-- Generator: Adobe Illustrator 16.0.3, SVG Export Plug-In . SVG Version: 6.00 Build 0)  -->
<!DOCTYPE svg PUBLIC "-//W3C//DTD SVG 1.1//EN" "http://www.w3.org/Graphics/SVG/1.1/DTD/svg11.dtd">
<svg version="1.1" id="Layer_1" xmlns="http://www.w3.org/2000/svg" xmlns:xlink="http://www.w3.org/1999/xlink" x="0px" y="0px"
	 width="982.786px" height="1179.207px" viewBox="-59.248 -5.699 982.786 1179.207"
	 enable-background="new -59.248 -5.699 982.786 1179.207" xml:space="preserve">
<g>
	<g>
		<g>
			<g>
				<polygon fill="#070735" points="207.412,593.962 207.412,743.525 253.936,743.525 253.936,689.511 287.447,689.511 
					299.365,656.831 253.936,656.831 253.936,626.532 310.369,626.532 322.246,593.962 				"/>
				<rect x="336.468" y="593.962" fill="#070735" width="46.561" height="149.563"/>
				<polygon fill="#070735" points="415.066,593.962 415.066,743.525 461.626,743.525 461.626,689.511 495.1,689.511 
					507.018,656.831 461.626,656.831 461.626,626.532 518.023,626.532 529.9,593.962 				"/>
				<path fill="#070735" d="M663.193,743.525h-47.015l-6.091-20.089h-52.614l-5.823,20.089h-45.842l54.502-149.563h48.414
					L663.193,743.525z M602.409,694.694l-18.611-62.302l-17.964,62.302H602.409z"/>
			</g>
			<g>
				<path fill="#070735" d="M108.275,812.059l-30.41,154.969H43.821l-14.296-73.761c-0.417-2.532-0.871-5.258-1.325-8.169
					c-0.451-2.911-0.905-5.935-1.359-9.114c-0.455-3.179-0.872-6.471-1.21-9.91c-0.343-3.44-0.719-6.963-1.061-10.671
					c-0.302,2.763-0.604,5.719-0.946,8.854c-0.339,3.143-0.756,6.359-1.173,9.643c-0.417,3.292-0.868,6.546-1.359,9.8
					c-0.495,3.254-1.024,6.352-1.59,9.345L5.206,967.028h-33.816l-30.637-154.969H-30.2l14.185,78.333
					c0.566,3.105,1.099,6.471,1.627,10.022c0.529,3.56,1.058,7.23,1.59,10.969c0.529,3.745,1.02,7.416,1.475,11.013
					c0.454,3.589,0.83,6.954,1.094,10.06c0.417-3.597,0.909-7.305,1.441-11.125c0.529-3.819,1.095-7.564,1.702-11.229
					c0.603-3.671,1.173-7.148,1.739-10.439c0.565-3.291,1.098-6.239,1.589-8.854l15.886-78.75h24.889l14.825,78.527
					c0.566,2.837,1.136,5.896,1.739,9.263c0.607,3.365,1.173,6.888,1.743,10.551c0.566,3.671,1.094,7.379,1.586,11.088
					c0.495,3.708,0.945,7.371,1.362,10.968c0.343-4.237,0.834-8.779,1.475-13.582c0.644-4.803,1.325-9.643,2.081-14.557
					c0.756-4.922,1.515-9.576,2.271-13.962l14.412-78.333h29.766V812.059z"/>
				<path fill="#070735" d="M228.027,889.335c0,12.293-1.136,23.373-3.403,33.209c-2.271,9.874-5.674,18.229-10.175,25.153
					c-4.542,6.925-10.212,12.219-17.137,15.89c-6.884,3.664-14.978,5.518-24.208,5.518c-9.341,0-17.435-1.854-24.356-5.562
					c-6.925-3.701-12.636-9.077-17.175-16.069c-4.538-6.999-7.904-15.398-10.175-25.234c-2.268-9.829-3.403-20.879-3.403-33.173
					c0-17.394,2.081-31.959,6.24-43.761c4.162-11.802,10.365-20.686,18.533-26.702c8.209-6.016,18.31-9.002,30.298-9.002
					c12.521,0,22.808,3.217,30.901,9.643c8.098,6.434,14.11,15.585,18.083,27.499C226.061,858.657,228.027,872.842,228.027,889.335z
					 M148.86,889.335c0,11.876,0.909,21.787,2.763,29.732c1.854,7.938,4.576,13.916,8.168,17.922
					c3.593,4.014,8.057,5.979,13.351,5.979c5.372,0,9.836-1.929,13.392-5.822c3.556-3.895,6.24-9.8,8.057-17.707
					c1.817-7.9,2.685-17.96,2.685-30.104c0-18.154-2.003-31.661-6.05-40.545c-4.01-8.853-10.063-13.32-18.12-13.32
					c-5.294,0-9.758,2.01-13.351,6.054c-3.593,4.013-6.318,10.022-8.168,18.004C149.731,867.51,148.86,877.458,148.86,889.335z"/>
				<path fill="#070735" d="M287.298,812.059c11.459,0,20.953,1.668,28.519,4.997c7.565,3.328,13.202,8.316,16.906,14.937
					c3.708,6.656,5.563,14.981,5.563,25.004c0,6.352-0.797,12.137-2.346,17.319c-1.553,5.183-3.973,9.837-7.264,13.888
					c-3.291,4.043-7.487,7.603-12.558,10.662l31.888,68.162H315.25l-25.342-60.745h-8.891v60.745h-29.766V812.059H287.298z
					 M287.071,837.175h-6.054v45.577h6.694c6.661,0,11.69-2.003,15.094-6.054c3.443-4.006,5.145-10.097,5.145-18.228
					c0-7.26-1.701-12.637-5.145-16.113C299.402,838.917,294.145,837.175,287.071,837.175z"/>
				<path fill="#070735" d="M362.455,967.028V812.059h29.766v129.094h41.229v25.875H362.455z"/>
				<path fill="#070735" d="M548.66,886.684c0,17.327-2.383,31.929-7.148,43.88s-11.724,20.991-20.879,27.193
					c-9.151,6.165-20.351,9.271-33.664,9.271h-36.464V812.059h38.698c12.706,0,23.525,2.874,32.375,8.586
					c8.85,5.711,15.585,14.147,20.198,25.228C546.356,856.959,548.66,870.571,548.66,886.684z M518.023,888.047
					c0-11.571-1.098-21.103-3.291-28.52c-2.192-7.408-5.446-12.896-9.795-16.411c-4.349-3.521-9.721-5.302-16.15-5.302h-8.474
					v103.151h6.467c10.744,0,18.648-4.349,23.679-13.053C515.488,919.216,518.023,905.94,518.023,888.047z"/>
				<path fill="#070735" d="M663.986,835.47c-4.538,0-8.47,1.362-11.877,4.013c-3.402,2.688-6.202,6.471-8.433,11.386
					c-2.233,4.914-3.897,10.7-4.992,17.319c-1.099,6.657-1.627,13.887-1.627,21.713c0,11.497,1.098,21.259,3.291,29.204
					c2.192,7.938,5.409,13.954,9.643,18.079c4.237,4.08,9.382,6.128,15.473,6.128c4.804,0,9.379-0.797,13.653-2.42
					c4.311-1.631,8.585-3.56,12.822-5.83v26.516c-4.465,2.457-9.229,4.348-14.371,5.637c-5.108,1.288-10.63,1.891-16.493,1.891
					c-11.649,0-21.561-3.098-29.729-9.263c-8.173-6.165-14.412-15.205-18.724-27.044c-4.312-11.84-6.467-26.218-6.467-43.084
					c0-11.578,1.21-22.241,3.667-31.966c2.42-9.717,6.013-18.153,10.741-25.339s10.555-12.748,17.438-16.68
					c6.884-3.976,14.788-5.941,23.679-5.941c6.203,0,12.216,0.797,18.005,2.346c5.785,1.548,11.385,3.976,16.754,7.223l-8.47,24.587
					c-3.824-2.606-7.682-4.691-11.538-6.203C672.612,836.229,668.412,835.47,663.986,835.47z"/>
				<path fill="#070735" d="M810.67,812.059v103.978c0,11.877-1.854,21.713-5.521,29.584c-3.671,7.825-9.08,13.73-16.229,17.662
					s-15.961,5.897-26.516,5.897c-15.316,0-27.119-4.312-35.365-12.972c-8.247-8.66-12.331-21.824-12.331-39.486V812.096H744.4
					v103.561c0,9.837,1.553,16.836,4.654,21.035c3.101,4.2,7.64,6.314,13.578,6.314c4.162,0,7.602-0.908,10.327-2.688
					c2.722-1.81,4.766-4.721,6.165-8.734c1.4-4.006,2.082-9.382,2.082-16.113V812.134h29.464V812.059z"/>
				<path fill="#070735" d="M876.9,812.059c15.771,0,27.461,4.088,35.139,12.257c7.677,8.168,11.5,20.045,11.5,35.667
					c0,7.833-0.986,14.981-2.915,21.37c-1.929,6.396-4.877,11.876-8.85,16.493c-3.973,4.616-8.928,8.131-14.94,10.588
					s-13.124,3.708-21.296,3.708h-8.169v54.923h-29.77V812.096H876.9V812.059z M874.669,837.406h-7.301v49.278h5.183
					c4.729,0,8.697-0.863,11.877-2.644c3.176-1.779,5.596-4.579,7.223-8.474c1.627-3.894,2.42-9.002,2.42-15.354
					c0-7.908-1.623-13.693-4.84-17.327C886.055,839.215,881.174,837.406,874.669,837.406z"/>
				<path fill="#070735" d="M322.321,1171.312H237.86v-21.103l29.77-41.46c6.355-8.809,11.195-16.15,14.523-21.974
					c3.329-5.822,5.559-10.968,6.731-15.465c1.173-4.505,1.742-9.085,1.742-13.731c0-5.45-1.288-9.762-3.861-12.979
					c-2.569-3.217-6.43-4.84-11.497-4.84c-4.01,0-7.83,1.058-11.459,3.18c-3.634,2.114-7.644,5.897-12.066,11.348l-14.297-19.293
					c4.312-5.107,8.585-9.151,12.781-12.256c4.2-3.061,8.626-5.294,13.317-6.62c4.65-1.325,9.721-2.003,15.168-2.003
					c8.206,0,15.391,1.743,21.634,5.257c6.24,3.522,11.043,8.362,14.524,14.565c3.48,6.202,5.182,13.499,5.182,21.824
					c0,6.843-0.834,13.388-2.42,19.554c-1.627,6.165-4.389,12.636-8.283,19.33c-3.898,6.731-9.229,14.296-16.002,22.77
					l-20.652,27.119v1.058h49.703v25.719H322.321z"/>
				<path fill="#070735" d="M427.058,1093.85c0,11.728-0.682,22.465-2.081,32.152c-1.4,9.68-3.708,18.116-6.959,25.228
					c-3.254,7.11-7.64,12.599-13.127,16.418c-5.521,3.857-12.405,5.786-20.652,5.786c-9.341,0-17.17-2.726-23.488-8.169
					c-6.314-5.45-11.117-13.998-14.371-25.726c-3.254-11.684-4.881-26.926-4.881-45.727c0-18.154,1.553-33.136,4.653-44.9
					c3.102-11.757,7.83-20.499,14.145-26.247c6.317-5.712,14.3-8.586,23.905-8.586c9.531,0,17.477,2.949,23.794,8.891
					c6.314,5.935,11.08,14.788,14.26,26.59C425.431,1061.437,427.058,1076.188,427.058,1093.85z M370.777,1093.85
					c0,12.293,0.413,22.428,1.21,30.372c0.793,7.945,2.192,13.843,4.121,17.7c1.929,3.864,4.654,5.793,8.094,5.793
					c3.519,0,6.281-1.929,8.21-5.793c1.928-3.857,3.291-9.755,4.084-17.7c0.793-7.944,1.173-18.079,1.173-30.372
					c0-11.951-0.38-21.899-1.173-29.882c-0.793-7.981-2.156-13.953-4.084-17.967c-1.929-4.006-4.691-5.972-8.21-5.972
					c-3.402,0-6.087,1.966-8.057,5.935c-1.966,3.976-3.365,9.91-4.195,17.93C371.153,1071.839,370.777,1081.825,370.777,1093.85z"/>
				<path fill="#070735" d="M526.042,1171.312h-84.461v-21.103l29.766-41.46c6.355-8.809,11.199-16.15,14.527-21.974
					c3.329-5.822,5.559-10.968,6.731-15.465c1.173-4.505,1.739-9.085,1.739-13.731c0-5.45-1.285-9.762-3.857-12.979
					s-6.43-4.84-11.497-4.84c-4.01,0-7.829,1.058-11.463,3.18c-3.63,2.114-7.64,5.897-12.066,11.348l-14.297-19.293
					c4.312-5.107,8.585-9.151,12.785-12.256c4.199-3.061,8.622-5.294,13.313-6.62c4.654-1.325,9.721-2.003,15.168-2.003
					c8.209,0,15.395,1.743,21.635,5.257c6.243,3.522,11.046,8.362,14.527,14.565c3.478,6.202,5.179,13.499,5.179,21.824
					c0,6.843-0.83,13.388-2.42,19.554c-1.627,6.165-4.386,12.636-8.284,19.33c-3.895,6.731-9.229,14.296-15.998,22.77
					l-20.651,27.119v1.058h49.699v25.719H526.042z"/>
				<path fill="#070735" d="M545.22,1105.503c0-10.179,0.566-19.822,1.738-28.973c1.173-9.159,3.102-17.514,5.786-25.116
					c2.688-7.603,6.28-14.185,10.819-19.784c4.538-5.6,10.101-9.911,16.758-12.934c6.656-3.031,14.561-4.543,23.753-4.543
					c3.477,0,6.884,0.149,10.212,0.492c3.365,0.305,6.582,0.834,9.684,1.549v24.892c-2.688-0.647-5.484-1.139-8.437-1.549
					c-2.948-0.379-5.976-0.573-9.151-0.573c-7.227,0-13.239,1.743-18.12,5.257c-4.877,3.522-8.622,8.854-11.232,16.076
					c-2.609,7.23-4.084,16.382-4.464,27.573h0.83c1.627-3.895,3.597-7.148,5.942-9.754c2.342-2.614,5.03-4.617,8.094-5.979
					c3.064-1.362,6.467-2.077,10.213-2.077c7.26,0,13.425,2.077,18.459,6.239c5.029,4.162,8.85,9.985,11.496,17.438
					c2.647,7.454,3.973,16.188,3.973,26.248c0,10.588-1.627,19.934-4.881,27.99c-3.25,8.057-7.979,14.333-14.185,18.801
					c-6.203,4.498-13.806,6.731-22.771,6.731c-6.995,0-13.235-1.512-18.761-4.579c-5.521-3.023-10.175-7.483-14.032-13.313
					c-3.856-5.823-6.769-12.935-8.737-21.37C546.203,1125.809,545.22,1116.241,545.22,1105.503z M588.981,1148.087
					c4.162,0,7.454-2.264,9.874-6.769c2.383-4.534,3.593-11.46,3.593-20.768c0-8.466-1.099-14.862-3.292-19.173
					c-2.192-4.312-5.483-6.471-9.869-6.471c-3.027,0-5.637,0.982-7.83,2.911c-2.196,1.936-3.86,4.542-5.033,7.796
					s-1.738,6.843-1.738,10.819c0,3.969,0.264,7.788,0.834,11.534c0.565,3.745,1.437,7.148,2.646,10.171
					c1.21,3.031,2.685,5.451,4.501,7.268C584.48,1147.179,586.598,1148.087,588.981,1148.087z"/>
			</g>
		</g>
		<g>
			<g>
				<path fill="#070735" d="M524.263,94.8c-0.265-0.492-0.491-0.946-0.641-1.437c-0.454-1.627-0.797-3.82,0.529-6.089
					c1.775-3.064-0.719-7.074-1.363-8.17c-0.417-0.718-0.644-1.74-0.908-2.837c-0.227-0.908-1.02-0.303-1.396-1.286
					c-0.227-0.605-1.135-4.198-3.142-4.351c-1.929-0.15-4.047,1.477-6.314,4.842c-1.136-15.395-13.656-42.249-13.768-42.439
					c-0.987-1.398-4.844-7.943-9.383-12.783c-7.792-8.284-18.57-14.752-29.01-19.14c-10.782-4.501-22.241-6.808-34.044-6.808
					c-10.249,0-20.271,1.741-29.84,5.181c-9.229,3.329-17.814,7.565-25.495,13.73c-0.265,0.228-14.186,13.654-17.89,19.706l0,0
					c-2.007,2.99-4.992,7.15-6.694,10.328c-1.44,2.798-2.915,5.484-4.051,8.433c-3.365,9.496-5.483,19.481-5.822,29.542
					c-1.136,1.361-1.854,4.161-2.309,8.623c-0.417,4.2-0.417,8.474-0.417,8.548l0.078,0.794c0.756,9.267,1.475,18.005,1.664,19.027
					c0.302,1.702,0.413,4.008,0.566,6.467c0.074,1.362,0.152,2.76,0.264,4.123c0.265,3.63,4.766,12.217,8.738,15.469
					c4.955,4.086,5.183,6.62,5.674,12.18c0.339,3.82,4.654,38.353,4.654,38.353c2.759,21.711,7.751,40.019,11.459,49.928
					c2.8,7.452,7.982,17.778,13.124,26.439c0.797,4.351,3.328,18.496,3.783,25.57c0.227,3.442-0.302,7.111-0.831,10.667
					c-0.756,5.106-1.552,10.4-0.115,15.356c2.498,8.625,2.498,17.437,0,24.207c-2.04,5.637-7.148,22.921-9.267,30.222l-1.321,3.064
					c0,0.037,0,0.037-0.041,0.076c-0.529,0.226-0.983,0.566-1.247,0.87c-1.21,1.361-2.268,3.442-2.759,4.576
					c-1.173,2.837-3.671,11.688-3.746,11.953c-0.38,1.324-0.078,2.61,0.529,3.519c-0.682,0.34-1.248,0.869-1.627,1.55
					c-1.702,3.064-4.576,8.813-6.051,12.217c-0.152,0.302-0.268,0.642-0.416,0.946c-0.075,0.151-0.075,0.227-0.075,0.264
					c0,0.151,0.037,0.341,0.187,0.492c0.115,0.113,0.227,0.152,0.265,0.19l-0.451,1.02c-0.078,0.039-0.152,0.076-0.227,0.113
					c-0.343,0.114-0.607,0.267-0.76,0.455c-0.074,0.076-0.149,0.19-0.187,0.266c-2.118,5.144-3.708,9.682-4.01,10.514
					c-0.078,0.228-0.305,0.908-0.115,1.438c-0.074,0.076-0.189,0.189-0.264,0.303c-0.19,0.228-0.377,0.529-0.529,0.946
					c-0.037,0.113-0.074,0.188-0.115,0.302c-0.187,0.604-1.247,3.745-2.569,8.096c-1.135,3.743-2.081,7.449-2.423,8.813
					l-0.112,0.415c-0.152,0.604-0.074,1.021,0.074,1.323c-0.264,0.267-0.454,0.645-0.644,1.136
					c-0.228,0.604-0.945,4.123-1.058,4.577c-0.111,0.491-0.227,1.021-0.111,1.475c-0.269,0.227-0.532,0.53-0.682,0.795
					c-0.189,0.415-0.152,0.832,0.074,1.173c0.302,0.454,0.909,0.68,1.817,0.68h155.721c0.908,0,1.511-0.226,1.816-0.68
					c0.224-0.341,0.265-0.758,0.074-1.173c-0.115-0.304-0.417-0.568-0.681-0.795c0.111-0.415,0-0.945-0.116-1.475
					c-0.111-0.454-0.755-3.782-1.02-4.577c-0.19-0.491-0.376-0.832-0.645-1.136c0.153-0.302,0.228-0.719,0.078-1.323
					c-0.152-0.605-1.362-5.484-2.498-9.228c-1.321-4.313-2.346-7.491-2.572-8.096c-0.228-0.68-0.529-1.248-0.867-1.625
					c0.148-0.531-0.038-1.136-0.116-1.4c-0.189-0.53-1.813-5.259-4.01-10.516c-0.037-0.114-0.111-0.188-0.148-0.227
					c-0.19-0.151-0.532-0.302-0.945-0.455l-0.492-1.133c0.075-0.038,0.149-0.077,0.228-0.114c0.227-0.19,0.302-0.53,0.186-0.795
					c-0.148-0.341-0.264-0.642-0.413-0.983c-2.915-6.582-6.091-12.18-6.091-12.217c-0.339-0.605-0.908-1.172-1.59-1.513
					c0.607-0.909,0.909-2.193,0.533-3.519c-0.079-0.264-2.461-9.04-3.746-11.951c-0.302-0.719-1.21-2.8-2.498-4.161
					c-0.641-0.681-1.586-1.173-2.081-1.4c-1.776-3.518-9.188-18.874-11.08-34.306c0.339-6.582,0.376-12.37,0.037-16
					c-0.565-5.788-0.528-14.222-0.38-16.719c2.61-6.96,5.146-14.412,6.885-21.977c1.098-4.727,2.461-13.881,3.328-19.516
					c1.023-1.929,3.102-6.242,5.674-13.958c3.745-11.158,9.267-32.074,15.246-54.844c5.976-22.733,13.313-35.328,17.055-44.708
					c2.916-7.262,3.519-11.234,2.651-12.671c0.037-0.113,0.111-0.19,0.148-0.301c4.729-8.625,6.054-13.466,7.793-24.55
					c1.098-6.845,3.139-12.405,4.653-16.489c0.868-2.385,1.512-4.086,1.627-5.183C525.477,97.108,524.832,95.859,524.263,94.8z
					 M495.48,101.684c-0.264-0.075-0.528-0.188-0.756-0.378c-0.606-0.531-0.681-1.476-0.417-2.269
					c0.57-1.627,2.193-3.141,3.556-2.346c1.099,0.795,1.59,2.195,1.021,3.405C498.317,101.343,496.806,102.024,495.48,101.684z
					 M493.741,108.152c-0.834-0.417-1.929-0.832-1.892-1.891c0-0.568,0.339-1.627,0.908-2.082c0.831-0.377,1.475-0.718,2.119-0.642
					c0.83,0.151,1.775,0.682,2.04,1.437C497.334,105.958,496.236,109.399,493.741,108.152z M497.07,80.73
					c3.63-2.194,7.715,3.744,5.447,6.731c-0.529,0.719-1.475,0.983-2.346,1.059C495.595,88.975,492.718,83.34,497.07,80.73z
					 M492.68,71.5c-0.413,0.075-0.83,0.075-1.21-0.113c-0.681-0.341-0.908-1.212-1.02-1.968c-0.343-2.345-0.492-5.447,0.644-7.603
					c1.359-2.61,3.366,0.304,4.196,2.005c0.719,1.4,0.982,3.064,0.569,4.578C495.443,69.911,494.233,71.197,492.68,71.5z
					 M498.433,71.236c0.941,0.339,1.813,0.907,2.531,1.625c0.302,0.265,0.569,0.605,0.682,0.983c0.152,0.38,0.152,0.832,0.037,1.212
					c-0.376,1.739-2.573,2.761-4.159,2.042c-1.627-0.718-2.271-2.987-1.325-4.501C496.727,71.728,497.524,70.857,498.433,71.236z
					 M489.203,50.205c0.074-1.739,0.565-3.479,1.701-4.803c0.417-0.455,0.867-0.872,1.173-1.4c1.132-2.082-1.363-6.166,0.867-7.642
					c2.837-1.89,4.01,3.595,4.125,5.222c0.265,3.593,0.037,7.563-2.308,10.324c-0.302,0.341-0.645,0.681-0.872,1.098
					c-0.491,0.87-0.45,1.929-0.677,2.875c-0.269,0.946-1.062,1.966-2.044,1.74c-0.909-0.227-1.248-1.323-1.438-2.269
					C489.43,53.647,489.125,51.906,489.203,50.205z M492.907,75.017c0.982,1.324,0.719,3.556-0.756,4.313
					c-0.719,0.378-1.59,0.338-2.383,0.227c-0.491-0.077-1.021-0.153-1.438-0.455C485.383,77.098,489.616,70.592,492.907,75.017z
					 M491.322,85.155c0.376,1.172-0.115,2.798,0.83,3.782c1.247,1.21,2.42-0.945,2.572,3.669c0,1.173-0.606,2.496-1.816,2.837
					c-0.756,0.227-1.701,0.188-2.268,0.756c-1.553,1.777-0.115,4.311-5.563,4.01c-5.637,0-7.412-3.519-7.338-8.889
					c0.115-4.01,0.871-4.237,4.312-6.052C484.21,84.059,489.996,81.827,491.322,85.155z M489.504,113.106
					c-2.308,0.227-7.147,0.417-8.7-1.815c-1.322-1.929,0.305-4.388,2.346-4.729c2.081-0.378,4.803,0.758,6.582,1.741
					C492.077,109.55,492.986,112.767,489.504,113.106z M478.838,105.58c-0.566,0.415-1.325,0.415-2.007,0.341
					c-4.46-0.605-8.094-4.047-10.551-7.83c-2.912-4.501-3.895-9.153-4.919-14.298c-0.454-2.27-0.64-3.215,2.234-2.496
					c2.118,0.53,4.01,2.044,5.22,3.819c1.738,2.536,2.42,5.637,3.102,8.664c0.528,2.343,1.172,4.879,3.063,6.316
					c1.058,0.793,2.42,1.173,3.44,2.079C479.441,102.97,479.896,104.748,478.838,105.58z M345.735,49.185
					c2.309-5.901,6.468-14.449,12.257-17.098c3.063-1.398,6.958,4.237,10.324,3.896c4.844-0.492,9.493-2.951,12.521-6.771
					c0.302-0.378,0.528-0.869,0.565-1.4c0.078-1.474-7.032-0.225-8.507-0.301c-1.779-0.077,1.438-5.183,3.023-5.296v-0.037
					c3.897-0.454,7.829-0.909,11.728-1.363c2.003-0.227,4.386-0.718,4.992-2.761c0.302-1.059-0.037-2.192-0.756-3.025
					c-1.288-1.437-3.291-1.703-5.107-1.476c-4.312,0.531-9.342,4.956-13.769,7.528c-2.271,1.323-3.63-2.119-2.498-4.501
					c0,0,18.311-20.086,56.661-19.555c34.42,0.491,52.805,19.441,57.153,23.64c0.644,0.642,1.098,1.437,1.284,2.308
					c0.491,2.306,1.061,6.354-1.132,5.257c-2.651-1.324,0.603,4.917,1.475,6.581c0.152,0.266,0.227,0.568,0.189,0.871
					c-0.041,1.097-0.306,3.556-1.627,1.702c-1.701-2.346-2.309-10.553-6.318-9.645c-4.01,0.945-0.302,6.279,1.627,6.845
					c0.946,0.266,1.627,0.946,1.512,1.93c-0.528,5.106,4.427,8.736,4.766,9.872c0.041,0.113,0.078,0.264,0.078,0.378v0.794
					c0,0.302-0.078,0.529-0.189,0.756c-1.285,2.082-6.129,4.956-6.203,5.938c-1.02,10.629-2.118-0.114-5.563,0.491
					c-0.755,0.114-1.21,0.909-1.02,1.627c0.682,2.497,2.609,4.691,2.271,7.262c-0.759,5.977-3.101,5.447-5.257,4.123
					c-0.945-0.568-2.159,0.037-2.271,1.136c-0.153,1.777-0.343,3.555-0.492,5.333c-0.115,1.21-0.301,2.61-1.627,3.139
					c-1.362,0.53-2.837-0.227-3.402-1.551c-1.251-2.988,0.641-5.598,0.982-8.435c0.566-5.032-3.745-9.153-5.562-13.918
					c-1.322-3.442-1.475-7.679-5.559-9.229c-1.892-0.719-3.973-0.455-5.749,0.415c-4.464,2.158-6.508,6.583-9.229,10.326
					c-2.155,2.99-3.935,9.76-7.449,8.548c-3.329-1.664-6.508-8.018-7.417-11.612c-0.945-3.593-1.399-7.413-3.287-10.59
					c-4.088-6.845-13.504-8.585-21.296-6.921c-1.854,0.378-3.745,0.983-4.881,2.61c-0.682,0.983-0.871,2.269-0.339,3.328
					c1.776,3.479,8.321,0.265,10.514,4.047c0.492,0.869,0.607,1.928,0.38,2.913c-0.491,2.23-2.233,3.744-4.01,4.993
					c-4.236,2.951-10.063,4.879-14.449,2.193c-3.708-2.307-5.029-7.072-7.944-10.326c-1.173-1.286-3.139-2.42-4.502-0.982
					c-0.338,0.34-0.565,0.794-0.677,1.249c-2.044,7.83,3.741,16.642,11.687,18.042c1.929,0.338,4.121,0.415,4.84,2.76
					c0.189,0.682,0.189,1.4,0.074,2.119c-0.904,5.257-5.029,9.04-8.507,13.01c-3.291,3.745-6.244,8.625-4.993,13.429
					c0.376,1.474,1.132,2.837,1.664,4.274c1.396,3.706,1.285,7.753,1.173,11.724c-0.189,6.432-0.417,12.824-0.606,19.254
					c-0.074,2.119-0.189,4.425-2.572,5.674c-1.248,0.642-2.685,0.756-4.047,0.415c-2.8-0.718-4.804-2.95-6.546-5.143
					c-3.778-4.766-7.032-9.872-9.758-15.319c-2.003-4.009-3.704-8.133-5.406-12.293c-2.007-4.879-4.881-9.758-5.261-18.004
					c-0.148-3.176-3.969-2.08-4.423-5.294C337.753,69.496,342.481,57.429,345.735,49.185z M402.281,121.58
					c-0.867,3.82-6.467,4.123-7.714-3.519c-0.38-2.23-0.606-4.575-0.037-6.808c0.376-1.323,1.475-1.928,1.813-4.765
					c1.25-7.565,7.338-1.59,7.416,3.669c0.037,2.497-0.607,3.252-1.705,5.786C401.715,117.533,402.813,119.348,402.281,121.58z
					 M341.576,131.451c-0.908-2.534-1.479-4.879-1.854-6.506c-0.078-3.366-0.569-8.358-0.796-9.19
					c-0.339-3.329-1.248-14.335-1.587-18.76c0-0.267,0-1.627,0.075-3.481c1.399,7.262,3.254,14.753,3.291,19.101
					c0.037,4.427,0.454,3.254,1.095,8.548c0.606,5.296,0.797,9.382,2.762,10.894c1.966,1.514,5.521,3.064,9.192,5.674l0,0
					c7.979,6.015,20.425,12.899,30.638,10.59c10.477-2.383,21.068-11.459,26.933-17.17c7.562-5.825,11.649-10.933,13.198-17.929
					c0.796-1.212,0.756,3.403,0,7.677c-3.481,11.802-24.245,24.888-33.586,29.086c-5.525,2.459-10.894,3.215-16.947,2.232
					c-6.166-1.287-11.877-4.047-15.205-5.901c-3.027-1.776-4.729-2.798-6.847-4.198l0,0
					C351.864,142.081,343.199,136.066,341.576,131.451z M392.675,154.638c4.01-2.384,13.013-7.679,18.154-11.953
					c5.145-4.274,8.7-4.274,10.138,5.106l0,0c1.929,13.919,5.637,32.341,6.467,42.968c0.343,5.561,0.834,12.37-0.111,20.161
					c-0.38,2.459-0.794,4.425-1.929,4.161c-0.454-0.038-0.797-0.302-1.099-0.793c-1.247-1.817-1.21-9.797-6.769-19.329
					c-5.938-9.76-13.09-16.908-19.632-22.318c-0.756-0.756-1.738-1.55-2.952-2.457l0,0
					C387.381,164.584,388.628,157.021,392.675,154.638z M375.464,238.947c-3.515-9.795-14.714-22.844-17.324-44.328
					c-0.982-8.17-1.85-14.827-2.531-20.161c-1.062-8.247-1.742-13.693-2.044-17.399c-0.228-2.8-0.682-5.069-1.21-6.96
					c0.604-0.037,1.512,0.341,2.8,1.363l0,0c1.586,1.474,3.022,3.025,3.969,4.501c3.634,5.788,16.873,19.82,30.187,29.464
					c10.629,7.716,14.486,7.603,21.746,20.538c4.088,9.116,6.091,21.788,5.711,27.649c-4.538,26.024-9.985,56.473-17.096,75.762
					c0.644-5.447-8.094-34.269-8.925-35.441C384.544,264.82,379.135,249.122,375.464,238.947z M474.262,401.326
					c1.322,0.039,2.458,0.834,3.023,2.005l11.236,22.846c0.756,1.627-0.454,3.479-2.234,3.442c-3.138-0.076-7.94-0.189-14.259-0.304
					c-3.25-0.037-5.786-0.111-6.657-0.15c-3.101-0.228-42.171-0.188-43.835-0.188s-40.737,0-43.839,0.188
					c-0.871,0.076-3.444,0.113-6.657,0.15c-4.616,0.076-8.057,0.153-10.894,0.228c-2.572,0.076-4.352-2.534-3.365-4.916
					l8.734-21.106c0.532-1.286,1.779-2.156,3.142-2.193c3.44-0.153,14.449-0.493,16.073-0.607
					c7.301-0.491,36.538-0.452,36.843-0.452c0.302,0,29.539-0.039,36.84,0.452c1.627,0.114,3.519,0.19,5.559,0.266
					C466.053,401.062,470.819,401.175,474.262,401.326z M453.912,379.237l-28.634-0.074l24.133-22.583l4.236-22.429
					c0,0,0.604,30.108,0,37.219C453.078,378.405,453.912,379.237,453.912,379.237z M464.161,377.346
					c0.153,0.871,1.21,1.817,1.21,1.817h-6.087l-2.196-25.419C457.088,353.744,463.972,376.477,464.161,377.346z M521.769,99
					c-0.074,0.906-0.719,2.647-1.512,4.84c-1.441,3.859-3.597,9.721-4.729,16.718c-1.779,11.083-2.989,15.584-7.644,24.094
					c-4.612,8.437-19.78,53.483-27.948,77.691l-0.76,2.232c-5.332,15.812-13.578,33.777-15.733,48.227
					c-1.099,7.262-2.044,13.503-3.102,18.193c-2.42,10.516-4.766,20.841-8.284,29.918c-0.152,0.454-2.003,0.871-2.155,1.286
					c-1.363-0.679-3.973-1.324-4.956-0.491c-0.871,0.718-34.568,33.133-49.018,47.017c-1.399,1.361,0.037,3.667,1.892,2.988
					c15.205-5.75,38.198-13.882,43.307-15.659c-3.593,3.63-14.486,11.385-30.6,21.672l0,0c-7.301,0.076-16.527,0.227-22.242,0.644
					c-1.437,0.113-8.924,0.568-10.931,0.756c-1.02-0.188-1.586-0.68-1.813-1.361l15.052-37.106
					c1.892-4.388,3.593-8.435,4.918-11.802c8.206-20.462,21.069-57.227,30.447-93.387c4.464-17.21,6.545-34.797,7.528-48.642
					c1.21-13.466,1.664-25.948,1.058-32.491c-0.872-9.343-2.986-26.136-4.766-38.77l0,0c-2.305-16,0.871-23.262-0.413-25.304
					c-1.326-2.044-2.16,2.269-5.071,1.286c-1.362-0.454-3.328-1.891-5.104-3.254c-1.251-1.286-2.383-2.42-3.328-3.289
					c-3.064-3.708-5.409-7.037-6.091-9.911c-0.983-4.199,3.176-6.506,5.029-7.301l0.265-0.113c2.837-1.248,4.125-1.702,5.525-0.075
					l0.264,0.302c1.813,2.195,3.895,4.652,7.904,5.032c0.38,0.037,0.719-0.227,0.756-0.605c0.228-3.064,0.945-3.746,1.4-3.859
					c0.454-0.114,0.871,0.605,0.982,0.795c1.062,2.004,1.816,5.635,2.044,10.289c0.187,3.933,1.851,16.377,3.064,21.18
					c0.037,0.227,5.896,24.965,9.832,37.825c3.936,12.822,8.02,20.424,9.077,22.429c0.569,1.097,1.892,2.27,3.443,3.102l0,0
					c1.813,1.249,3.064,1.098,5.295,4.538c2.192,3.444,4.803,11.046,7.981,11.501c3.176,0.452,2.722-7.338,2.986-10.629
					c0.265-3.292,4.39-7.415,5.826-8.775c0.228-0.227,0.417-0.341,0.566-0.378c1.325-0.378-1.173,6.921-2.268,11.309
					c-1.099,4.351,1.095,7.98,3.932,7.111c2.837-0.87,5.257-12.785,10.063-17.588c4.803-4.805,8.887-13.466,9.758-15.432
					c0.871-1.93,6.847-18.118,4.918-15.093c-7.036,11.121-13.92,19.783-16.91,17.817c-2.948-1.968-8.168-0.985-8.168-0.985
					s0.528,2.724,0.756,7.225c0.228,4.464-3.403,1.854-10.477,0.644c-7.074-1.212-6.545-2.195-8.358-3.178
					c-1.779-0.983-1.288,0.643-3.026,1.21c-1.739,0.529-4.048-2.723-4.691-5.03c-0.645-2.308,1.966-3.481,2.837-3.367
					c0,0-0.645-3.63,2.081-7.64c0.339-0.491,1.058-1.362,2.647-2.042c2.081-0.908,4.803-1.059,5.483-1.098
					c4.956-0.075,7.491,2.723,9.267,4.918c2.197,2.685,5.146,0.833,7.491-1.74c2.346-2.534,11.497-11.271,10.402-11.536
					c-1.099-0.264-7.074,1.136-4.579-1.4c0.796-0.795,2.345-2.383,2.345-2.383l0,0c8.738-9.267,13.355-18.192,14.527-20.992
					c1.813-4.312,3.366-7.452,5.521-6.316c2.156,1.134,4.386-2.61,2.647-3.82c-1.739-1.211-1.817-2.61-1.21-4.426
					c0.603-1.815-3.366-1.739-5.711-2.27c-1.248-0.264-1.024-2.193-0.533-3.896c3.105-5.067,5.071-5.749,6.017-5.674
					c1.21,0.077,1.817,1.439,1.966,1.854c0.343,0.908,0.57,1.854,0.793,2.8c0.306,1.172,0.57,1.21,1.062,2.079
					c0.491,0.871,1.136,2.686-0.302,5.146c-1.59,2.76-1.136,5.37-0.682,7.148c0.19,0.642,1.021,1.173,1.285,1.702
					C521.389,96.427,521.88,97.372,521.769,99z M462.572,201.767c-6.693-0.755-9.567-18.306-12.141-18.458
					c-2.572-0.151-4.236,10.553-4.69,18.004c-0.794,12.481-3.82,29.2-9.305,47.432c-5.257,17.474-29.766,71.676-39.147,92.177
					c-1.475,3.215,1.136,3.254-0.491,6.771c-4.048,8.852-8.66,13.466-8.169,13.693c0.491,0.188,7.603-5.901,14.449-12.558
					c13.276-12.899,14.449-15.471,25.872-27.422c19.743-20.615,26.475-49.172,28.365-56.32c1.892-7.15-4.423-7.755-0.264-15.963
					c1.891-3.744,17.852-31.886,19.858-40.093C478.912,200.821,469.229,202.522,462.572,201.767z"/>
				<path fill="#070735" d="M382.728,417.78c2.498-0.037,5.029-0.074,7.527-0.074c0.228-1.287,0.454-2.573,0.682-3.822
					c-2.424,0.039-4.881,0.039-7.301,0.076c0.302-1.4,0.644-2.8,0.945-4.198c4.196-0.039,8.396-0.114,12.595-0.153
					c0.19-1.21,0.377-2.42,0.529-3.63c-5.749,0.037-11.497,0.114-17.249,0.188c-1.512,5.938-2.986,11.916-4.46,17.854
					c1.775-0.037,3.556-0.037,5.331-0.076C381.781,421.867,382.273,419.822,382.728,417.78z M451.113,420.995
					c3.556,0.039,7.111,0.076,10.703,0.114c0.645,0.945,1.326,1.854,1.966,2.8c1.854,0.037,3.709,0.037,5.563,0.076
					c-4.464-6.015-8.965-11.992-13.503-17.968c-1.475,0-2.953-0.037-4.427-0.037c-2.156,5.899-4.274,11.839-6.393,17.738
					c1.742,0,3.48,0.039,5.22,0.039C450.505,422.849,450.811,421.941,451.113,420.995z M454.404,410.783
					c1.512,2.081,2.989,4.2,4.464,6.279c-2.155-0.037-4.312-0.037-6.471-0.076C453.078,414.906,453.722,412.864,454.404,410.783z
					 M422.441,405.828c0.153,5.938,0.306,11.878,0.455,17.816c1.779,0,3.518,0,5.298,0c-0.078-2.157-0.19-4.274-0.265-6.432
					c2.457,0,4.914,0,7.372,0.039c-0.149-1.286-0.265-2.572-0.414-3.822c-2.383,0-4.766-0.037-7.147-0.037
					c-0.079-1.323-0.153-2.61-0.228-3.933c4.196,0,8.396,0.037,12.632,0.037c-0.152-1.21-0.301-2.42-0.454-3.63
					C433.942,405.867,428.194,405.828,422.441,405.828z M411.625,405.867c-1.627,0-3.254,0-4.918,0.037
					c-0.491,5.938-0.982,11.876-1.512,17.814c1.776,0,3.519-0.037,5.295-0.037C410.907,417.743,411.246,411.805,411.625,405.867z"/>
			</g>
		</g>
	</g>
</g>
</svg>
